<svg width="40" height="40" viewBox="0 0 40 40" fill="none" xmlns="http://www.w3.org/2000/svg">
<path d="M19.8648 32.2423C17.4168 32.2423 15.0237 31.5164 12.9882 30.1564C10.9527 28.7963 9.36629 26.8632 8.42946 24.6015C7.49264 22.3398 7.24752 19.8511 7.72511 17.4501C8.2027 15.0491 9.38154 12.8436 11.1126 11.1126C12.8436 9.38157 15.0491 8.20273 17.4501 7.72514C19.8511 7.24755 22.3398 7.49267 24.6015 8.42949C26.8632 9.36632 28.7963 10.9528 30.1563 12.9882C31.5164 15.0237 32.2423 17.4168 32.2423 19.8648C32.2386 23.1464 30.9333 26.2925 28.6129 28.6129C26.2924 30.9333 23.1464 32.2386 19.8648 32.2423ZM19.8648 8.62245C17.6413 8.62245 15.4677 9.2818 13.6189 10.5171C11.7701 11.7525 10.3291 13.5083 9.47819 15.5626C8.62728 17.6168 8.40464 19.8773 8.83843 22.0581C9.27222 24.2389 10.343 26.2421 11.9152 27.8144C13.4875 29.3867 15.4907 30.4574 17.6715 30.8912C19.8523 31.325 22.1128 31.1023 24.1671 30.2514C26.2213 29.4005 27.9772 27.9596 29.2125 26.1108C30.4478 24.262 31.1072 22.0884 31.1072 19.8648C31.1037 16.8842 29.9181 14.0267 27.8105 11.9191C25.7029 9.81147 22.8454 8.6259 19.8648 8.62245Z" fill="white"/>
<path d="M19.8649 29.3092C17.997 29.3092 16.1711 28.7553 14.6179 27.7175C13.0648 26.6798 11.8543 25.2048 11.1395 23.4791C10.4247 21.7533 10.2377 19.8544 10.6021 18.0224C10.9665 16.1903 11.866 14.5075 13.1868 13.1867C14.5076 11.8659 16.1904 10.9664 18.0224 10.602C19.8545 10.2376 21.7534 10.4246 23.4791 11.1394C25.2048 11.8543 26.6798 13.0648 27.7176 14.6179C28.7554 16.171 29.3093 17.997 29.3093 19.8649C29.3064 22.3688 28.3105 24.7693 26.5399 26.5399C24.7694 28.3104 22.3688 29.3063 19.8649 29.3092ZM19.8649 11.5557C18.2215 11.5557 16.615 12.043 15.2486 12.956C13.8821 13.8691 12.8171 15.1668 12.1882 16.6851C11.5593 18.2034 11.3948 19.8741 11.7154 21.4859C12.036 23.0977 12.8274 24.5783 13.9894 25.7404C15.1515 26.9024 16.6321 27.6938 18.2439 28.0144C19.8557 28.335 21.5264 28.1705 23.0447 27.5416C24.563 26.9127 25.8607 25.8476 26.7738 24.4812C27.6868 23.1148 28.1741 21.5083 28.1741 19.8649C28.1716 17.6619 27.2953 15.5499 25.7376 13.9922C24.1799 12.4345 22.0679 11.5582 19.8649 11.5557Z" fill="white"/>
<path d="M20.8104 20.0465H17.9238C17.7732 20.0465 17.6289 19.9867 17.5224 19.8803C17.416 19.7738 17.3562 19.6295 17.3562 19.479V14.8391C17.3562 14.6886 17.416 14.5442 17.5224 14.4378C17.6289 14.3313 17.7732 14.2715 17.9238 14.2715H20.8104C21.193 14.2662 21.5729 14.3369 21.9279 14.4796C22.2829 14.6223 22.606 14.8341 22.8785 15.1028C23.1509 15.3715 23.3673 15.6916 23.515 16.0446C23.6626 16.3976 23.7387 16.7764 23.7387 17.159C23.7387 17.5417 23.6626 17.9205 23.515 18.2735C23.3673 18.6265 23.1509 18.9466 22.8785 19.2153C22.606 19.4839 22.2829 19.6958 21.9279 19.8385C21.5729 19.9812 21.193 20.0519 20.8104 20.0465ZM18.4913 18.9114H20.8104C21.0432 18.9156 21.2745 18.8733 21.4907 18.7872C21.707 18.701 21.904 18.5726 22.0701 18.4094C22.2362 18.2463 22.3681 18.0517 22.4581 17.837C22.5482 17.6223 22.5946 17.3918 22.5946 17.159C22.5946 16.9262 22.5482 16.6957 22.4581 16.481C22.3681 16.2663 22.2362 16.0718 22.0701 15.9086C21.904 15.7455 21.707 15.6171 21.4907 15.5309C21.2745 15.4447 21.0432 15.4025 20.8104 15.4067H18.4913V18.9114Z" fill="white"/>
<path d="M21.5477 24.6892H17.9238C17.7732 24.6892 17.6289 24.6294 17.5224 24.523C17.416 24.4165 17.3562 24.2722 17.3562 24.1216V19.4789C17.3562 19.3284 17.416 19.1841 17.5224 19.0776C17.6289 18.9712 17.7732 18.9114 17.9238 18.9114H21.5477C22.3136 18.9114 23.0481 19.2156 23.5897 19.7572C24.1312 20.2988 24.4355 21.0333 24.4355 21.7992C24.4355 22.565 24.1312 23.2996 23.5897 23.8411C23.0481 24.3827 22.3136 24.6869 21.5477 24.6869V24.6892ZM18.4913 23.5541H21.5477C22.0125 23.5541 22.4583 23.3694 22.787 23.0407C23.1157 22.7121 23.3003 22.2663 23.3003 21.8014C23.3003 21.3366 23.1157 20.8908 22.787 20.5621C22.4583 20.2334 22.0125 20.0488 21.5477 20.0488H18.4913V23.5541Z" fill="white"/>
<path d="M17.9237 15.4066H17.0951C16.9446 15.4066 16.8002 15.3468 16.6938 15.2404C16.5873 15.1339 16.5275 14.9896 16.5275 14.839C16.5275 14.6885 16.5873 14.5442 16.6938 14.4377C16.8002 14.3313 16.9446 14.2715 17.0951 14.2715H17.9237C18.0743 14.2715 18.2186 14.3313 18.3251 14.4377C18.4315 14.5442 18.4913 14.6885 18.4913 14.839C18.4913 14.9896 18.4315 15.1339 18.3251 15.2404C18.2186 15.3468 18.0743 15.4066 17.9237 15.4066Z" fill="white"/>
<path d="M18.3894 15.4066C18.2389 15.4066 18.0945 15.3468 17.9881 15.2404C17.8816 15.134 17.8218 14.9896 17.8218 14.8391V13.7947C17.8218 13.6442 17.8816 13.4998 17.9881 13.3934C18.0945 13.287 18.2389 13.2272 18.3894 13.2272C18.5399 13.2272 18.6843 13.287 18.7907 13.3934C18.8972 13.4998 18.957 13.6442 18.957 13.7947V14.8391C18.957 14.9896 18.8972 15.134 18.7907 15.2404C18.6843 15.3468 18.5399 15.4066 18.3894 15.4066Z" fill="white"/>
<path d="M20.1967 15.4066C20.0462 15.4066 19.9018 15.3468 19.7954 15.2404C19.6889 15.134 19.6291 14.9896 19.6291 14.8391V13.7947C19.6291 13.6442 19.6889 13.4998 19.7954 13.3934C19.9018 13.287 20.0462 13.2272 20.1967 13.2272C20.3472 13.2272 20.4916 13.287 20.598 13.3934C20.7045 13.4998 20.7643 13.6442 20.7643 13.7947V14.8391C20.7643 14.9896 20.7045 15.134 20.598 15.2404C20.4916 15.3468 20.3472 15.4066 20.1967 15.4066Z" fill="white"/>
<path d="M18.3894 25.7307C18.2389 25.7307 18.0945 25.6709 17.9881 25.5645C17.8816 25.458 17.8218 25.3136 17.8218 25.1631V24.1216C17.8218 23.9711 17.8816 23.8268 17.9881 23.7203C18.0945 23.6139 18.2389 23.5541 18.3894 23.5541C18.5399 23.5541 18.6843 23.6139 18.7907 23.7203C18.8972 23.8268 18.957 23.9711 18.957 24.1216V25.1654C18.9564 25.3155 18.8963 25.4593 18.7899 25.5653C18.6836 25.6712 18.5395 25.7307 18.3894 25.7307Z" fill="white"/>
<path d="M20.1967 25.7307C20.0462 25.7307 19.9018 25.6709 19.7954 25.5645C19.6889 25.458 19.6291 25.3136 19.6291 25.1631V24.1216C19.6291 23.9711 19.6889 23.8268 19.7954 23.7203C19.9018 23.6139 20.0462 23.5541 20.1967 23.5541C20.3472 23.5541 20.4916 23.6139 20.598 23.7203C20.7045 23.8268 20.7643 23.9711 20.7643 24.1216V25.1654C20.7637 25.3155 20.7036 25.4593 20.5972 25.5653C20.4909 25.6712 20.3468 25.7307 20.1967 25.7307Z" fill="white"/>
<path d="M17.9237 24.6892H17.0951C16.9446 24.6892 16.8002 24.6294 16.6938 24.523C16.5873 24.4165 16.5275 24.2722 16.5275 24.1216C16.5275 23.9711 16.5873 23.8268 16.6938 23.7203C16.8002 23.6139 16.9446 23.5541 17.0951 23.5541H17.9237C18.0743 23.5541 18.2186 23.6139 18.3251 23.7203C18.4315 23.8268 18.4913 23.9711 18.4913 24.1216C18.4913 24.2722 18.4315 24.4165 18.3251 24.523C18.2186 24.6294 18.0743 24.6892 17.9237 24.6892Z" fill="white"/>
<path d="M19.865 8.62244C19.7144 8.62244 19.5701 8.56265 19.4636 8.45621C19.3572 8.34977 19.2974 8.20541 19.2974 8.05488V4.11823C19.2974 3.9677 19.3572 3.82334 19.4636 3.7169C19.5701 3.61046 19.7144 3.55066 19.865 3.55066C20.0155 3.55066 20.1599 3.61046 20.2663 3.7169C20.3727 3.82334 20.4325 3.9677 20.4325 4.11823V8.05488C20.4325 8.20541 20.3727 8.34977 20.2663 8.45621C20.1599 8.56265 20.0155 8.62244 19.865 8.62244Z" fill="white"/>
<path d="M19.8646 4.68584C19.4013 4.68584 18.9483 4.54843 18.563 4.29099C18.1777 4.03354 17.8774 3.66763 17.7001 3.23952C17.5227 2.8114 17.4763 2.34032 17.5667 1.88584C17.6571 1.43136 17.8803 1.01389 18.208 0.686226C18.5356 0.358563 18.9531 0.135422 19.4076 0.0450196C19.862 -0.0453825 20.3331 0.00101514 20.7612 0.178345C21.1893 0.355675 21.5553 0.655973 21.8127 1.04126C22.0701 1.42656 22.2075 1.87953 22.2075 2.34292C22.2068 2.96407 21.9597 3.55956 21.5205 3.99878C21.0813 4.438 20.4858 4.68509 19.8646 4.68584ZM19.8646 1.13514C19.6258 1.13514 19.3923 1.20597 19.1936 1.33868C18.995 1.4714 18.8402 1.66003 18.7488 1.88072C18.6574 2.10142 18.6335 2.34426 18.6801 2.57855C18.7267 2.81283 18.8417 3.02804 19.0106 3.19695C19.1795 3.36586 19.3947 3.48089 19.629 3.5275C19.8633 3.5741 20.1061 3.55018 20.3268 3.45877C20.5475 3.36735 20.7362 3.21255 20.8689 3.01393C21.0016 2.81531 21.0724 2.5818 21.0724 2.34292C21.0721 2.02269 20.9448 1.71566 20.7183 1.48922C20.4919 1.26278 20.1849 1.13544 19.8646 1.13514Z" fill="white"/>
<path d="M19.865 36.1791C19.7144 36.1791 19.5701 36.1193 19.4636 36.0129C19.3572 35.9064 19.2974 35.7621 19.2974 35.6115V31.6749C19.2974 31.5243 19.3572 31.38 19.4636 31.2735C19.5701 31.1671 19.7144 31.1073 19.865 31.1073C20.0155 31.1073 20.1599 31.1671 20.2663 31.2735C20.3727 31.38 20.4325 31.5243 20.4325 31.6749V35.6115C20.4325 35.7621 20.3727 35.9064 20.2663 36.0129C20.1599 36.1193 20.0155 36.1791 19.865 36.1791Z" fill="white"/>
<path d="M19.8646 39.7298C19.4013 39.7298 18.9483 39.5924 18.563 39.3349C18.1777 39.0775 17.8774 38.7116 17.7001 38.2834C17.5227 37.8553 17.4763 37.3843 17.5667 36.9298C17.6571 36.4753 17.8803 36.0578 18.208 35.7302C18.5356 35.4025 18.9531 35.1794 19.4076 35.089C19.862 34.9986 20.3331 35.045 20.7612 35.2223C21.1893 35.3996 21.5553 35.6999 21.8127 36.0852C22.0701 36.4705 22.2075 36.9235 22.2075 37.3869C22.2068 38.008 21.9597 38.6035 21.5205 39.0427C21.0813 39.4819 20.4858 39.729 19.8646 39.7298ZM19.8646 36.1791C19.6258 36.1791 19.3923 36.2499 19.1936 36.3826C18.995 36.5153 18.8402 36.704 18.7488 36.9247C18.6574 37.1454 18.6335 37.3882 18.6801 37.6225C18.7267 37.8568 18.8417 38.072 19.0106 38.2409C19.1795 38.4098 19.3947 38.5248 19.629 38.5714C19.8633 38.618 20.1061 38.5941 20.3268 38.5027C20.5475 38.4113 20.7362 38.2565 20.8689 38.0579C21.0016 37.8592 21.0724 37.6257 21.0724 37.3869C21.0721 37.0666 20.9448 36.7596 20.7183 36.5332C20.4919 36.3067 20.1849 36.1794 19.8646 36.1791Z" fill="white"/>
<path d="M35.6117 20.4324H31.675C31.5245 20.4324 31.3801 20.3726 31.2737 20.2662C31.1673 20.1597 31.1075 20.0153 31.1075 19.8648C31.1075 19.7143 31.1673 19.5699 31.2737 19.4635C31.3801 19.357 31.5245 19.2972 31.675 19.2972H35.6117C35.7622 19.2972 35.9066 19.357 36.013 19.4635C36.1194 19.5699 36.1792 19.7143 36.1792 19.8648C36.1792 20.0153 36.1194 20.1597 36.013 20.2662C35.9066 20.3726 35.7622 20.4324 35.6117 20.4324Z" fill="white"/>
<path d="M37.3864 22.2078C36.923 22.2078 36.47 22.0704 36.0847 21.8129C35.6995 21.5555 35.3992 21.1896 35.2218 20.7615C35.0445 20.3334 34.9981 19.8623 35.0885 19.4078C35.1789 18.9533 35.402 18.5359 35.7297 18.2082C36.0574 17.8805 36.4748 17.6574 36.9293 17.567C37.3838 17.4766 37.8549 17.523 38.283 17.7003C38.7111 17.8776 39.077 18.1779 39.3345 18.5632C39.5919 18.9485 39.7293 19.4015 39.7293 19.8649C39.7286 20.486 39.4815 21.0815 39.0423 21.5207C38.603 21.96 38.0075 22.207 37.3864 22.2078ZM37.3864 18.6571C37.1475 18.6571 36.914 18.7279 36.7154 18.8607C36.5168 18.9934 36.362 19.182 36.2706 19.4027C36.1791 19.6234 36.1552 19.8662 36.2018 20.1005C36.2484 20.3348 36.3635 20.55 36.5324 20.7189C36.7013 20.8878 36.9165 21.0029 37.1508 21.0495C37.3851 21.0961 37.6279 21.0721 37.8486 20.9807C38.0693 20.8893 38.2579 20.7345 38.3906 20.5359C38.5233 20.3373 38.5942 20.1038 38.5942 19.8649C38.5939 19.5447 38.4665 19.2376 38.2401 19.0112C38.0137 18.7848 37.7066 18.6574 37.3864 18.6571Z" fill="white"/>
<path d="M8.05506 20.4324H4.11841C3.96788 20.4324 3.82352 20.3726 3.71708 20.2662C3.61064 20.1597 3.55084 20.0153 3.55084 19.8648C3.55084 19.7143 3.61064 19.5699 3.71708 19.4635C3.82352 19.357 3.96788 19.2972 4.11841 19.2972H8.05506C8.20559 19.2972 8.34995 19.357 8.45639 19.4635C8.56283 19.5699 8.62262 19.7143 8.62262 19.8648C8.62262 20.0153 8.56283 20.1597 8.45639 20.2662C8.34995 20.3726 8.20559 20.4324 8.05506 20.4324Z" fill="white"/>
<path d="M2.34292 22.2078C1.87953 22.2078 1.42656 22.0704 1.04126 21.8129C0.655973 21.5555 0.355675 21.1896 0.178345 20.7615C0.00101514 20.3334 -0.0453825 19.8623 0.0450196 19.4078C0.135422 18.9533 0.358563 18.5359 0.686226 18.2082C1.01389 17.8805 1.43136 17.6574 1.88584 17.567C2.34032 17.4766 2.8114 17.523 3.23952 17.7003C3.66763 17.8776 4.03354 18.1779 4.29099 18.5632C4.54843 18.9485 4.68584 19.4015 4.68584 19.8649C4.68509 20.486 4.438 21.0815 3.99878 21.5207C3.55956 21.96 2.96407 22.207 2.34292 22.2078ZM2.34292 18.6571C2.10404 18.6571 1.87053 18.7279 1.67191 18.8607C1.47329 18.9934 1.31849 19.182 1.22707 19.4027C1.13566 19.6234 1.11174 19.8662 1.15834 20.1005C1.20495 20.3348 1.31998 20.55 1.48889 20.7189C1.6578 20.8878 1.87301 21.0029 2.10729 21.0495C2.34158 21.0961 2.58443 21.0721 2.80512 20.9807C3.02581 20.8893 3.21444 20.7345 3.34716 20.5359C3.47987 20.3373 3.5507 20.1038 3.5507 19.8649C3.5504 19.5447 3.42306 19.2376 3.19662 19.0112C2.97018 18.7848 2.66315 18.6574 2.34292 18.6571Z" fill="white"/>
<path d="M10.0461 33.5592H5.51468C5.36415 33.5592 5.21979 33.4994 5.11335 33.3929C5.00691 33.2865 4.94711 33.1421 4.94711 32.9916C4.94711 32.8411 5.00691 32.6967 5.11335 32.5903C5.21979 32.4838 5.36415 32.424 5.51468 32.424H9.73341L12.0037 28.7825C12.0833 28.6546 12.2105 28.5635 12.3573 28.5293C12.5041 28.4952 12.6584 28.5207 12.7863 28.6003C12.9143 28.68 13.0054 28.8072 13.0395 28.9539C13.0737 29.1007 13.0482 29.2551 12.9685 29.383L10.5325 33.2919C10.4811 33.3743 10.4094 33.4422 10.3242 33.489C10.2391 33.5358 10.1433 33.56 10.0461 33.5592Z" fill="white"/>
<path d="M3.74003 35.3345C3.27667 35.3344 2.82374 35.1969 2.43853 34.9394C2.05331 34.6819 1.7531 34.3159 1.57586 33.8878C1.39861 33.4597 1.3523 32.9886 1.44276 32.5342C1.53323 32.0797 1.75642 31.6623 2.0841 31.3347C2.41179 31.0071 2.82926 30.784 3.28372 30.6937C3.73819 30.6033 4.20924 30.6497 4.63732 30.8271C5.0654 31.0044 5.43128 31.3047 5.6887 31.69C5.94612 32.0753 6.08351 32.5282 6.08351 32.9916C6.08291 33.6129 5.8358 34.2086 5.39642 34.6478C4.95705 35.0871 4.36132 35.3341 3.74003 35.3345ZM3.74003 31.7838C3.50117 31.7839 3.26772 31.8549 3.06917 31.9876C2.87063 32.1204 2.71591 32.3091 2.62459 32.5298C2.53326 32.7505 2.50942 32.9933 2.55609 33.2276C2.60275 33.4618 2.71783 33.677 2.88676 33.8458C3.0557 34.0147 3.2709 34.1297 3.50518 34.1762C3.73945 34.2228 3.98226 34.1988 4.20292 34.1074C4.42359 34.016 4.61218 33.8612 4.74487 33.6625C4.87756 33.4639 4.94838 33.2304 4.94838 32.9916C4.94808 32.6713 4.82066 32.3642 4.59409 32.1377C4.36753 31.9112 4.06036 31.784 3.74003 31.7838Z" fill="white"/>
<path d="M12.4867 11.2146C12.3902 11.2148 12.2952 11.1903 12.2108 11.1435C12.1264 11.0967 12.0553 11.0292 12.0042 10.9473L9.73398 7.30579H5.51468C5.36415 7.30579 5.21979 7.24599 5.11335 7.13955C5.00691 7.03311 4.94711 6.88875 4.94711 6.73822C4.94711 6.58769 5.00691 6.44333 5.11335 6.33689C5.21979 6.23045 5.36415 6.17065 5.51468 6.17065H10.0461C10.1426 6.17062 10.2374 6.19514 10.3217 6.24191C10.406 6.28868 10.477 6.35616 10.528 6.43798L12.964 10.3468C13.0174 10.4324 13.047 10.5307 13.0497 10.6316C13.0525 10.7324 13.0283 10.8322 12.9797 10.9206C12.931 11.009 12.8597 11.0829 12.7731 11.1345C12.6864 11.1862 12.5876 11.2139 12.4867 11.2146Z" fill="white"/>
<path d="M3.74003 9.0811C3.27667 9.08099 2.82374 8.94348 2.43853 8.68597C2.05331 8.42846 1.7531 8.06251 1.57586 7.63439C1.39861 7.20626 1.3523 6.7352 1.44276 6.28075C1.53323 5.82631 1.75642 5.4089 2.0841 5.08129C2.41179 4.75368 2.82926 4.5306 3.28372 4.44024C3.73819 4.34989 4.20924 4.39632 4.63732 4.57366C5.0654 4.75101 5.43128 5.05131 5.6887 5.43659C5.94612 5.82186 6.08351 6.27482 6.08351 6.73818C6.08291 7.35948 5.8358 7.95515 5.39642 8.39441C4.95705 8.83368 4.36132 9.08065 3.74003 9.0811ZM3.74003 5.5304C3.50117 5.53051 3.26772 5.60144 3.06917 5.73422C2.87063 5.867 2.71591 6.05567 2.62459 6.27638C2.53326 6.49708 2.50942 6.73991 2.55609 6.97416C2.60275 7.20841 2.71783 7.42356 2.88676 7.59242C3.0557 7.76127 3.2709 7.87624 3.50518 7.9228C3.73945 7.96936 3.98226 7.94541 4.20292 7.85398C4.42359 7.76254 4.61218 7.60774 4.74487 7.40913C4.87756 7.21053 4.94838 6.97704 4.94838 6.73818C4.94808 6.41785 4.82066 6.11074 4.59409 5.88428C4.36753 5.65783 4.06036 5.53055 3.74003 5.5304Z" fill="white"/>
<path d="M34.215 33.5592H29.6836C29.5872 33.5592 29.4923 33.5347 29.408 33.4879C29.3237 33.4411 29.2527 33.3736 29.2017 33.2918L26.7634 29.383C26.6838 29.2551 26.6583 29.1007 26.6924 28.9539C26.7266 28.8072 26.8177 28.68 26.9456 28.6003C27.0736 28.5207 27.2279 28.4952 27.3747 28.5293C27.5215 28.5635 27.6487 28.6546 27.7283 28.7825L29.9986 32.424H34.2173C34.3678 32.424 34.5122 32.4838 34.6186 32.5903C34.7251 32.6967 34.7849 32.8411 34.7849 32.9916C34.7849 33.1421 34.7251 33.2865 34.6186 33.3929C34.5122 33.4994 34.3678 33.5592 34.2173 33.5592H34.215Z" fill="white"/>
<path d="M35.9898 35.3345C35.5265 35.3345 35.0735 35.1971 34.6882 34.9397C34.3029 34.6822 34.0026 34.3163 33.8253 33.8882C33.6479 33.4601 33.6015 32.989 33.6919 32.5345C33.7823 32.08 34.0055 31.6626 34.3331 31.3349C34.6608 31.0072 35.0783 30.7841 35.5328 30.6937C35.9872 30.6033 36.4583 30.6497 36.8864 30.827C37.3145 31.0044 37.6805 31.3047 37.9379 31.6899C38.1954 32.0752 38.3328 32.5282 38.3328 32.9916C38.332 33.6127 38.0849 34.2082 37.6457 34.6475C37.2065 35.0867 36.611 35.3338 35.9898 35.3345ZM35.9898 31.7838C35.751 31.7838 35.5174 31.8547 35.3188 31.9874C35.1202 32.1201 34.9654 32.3087 34.874 32.5294C34.7826 32.7501 34.7587 32.9929 34.8053 33.2272C34.8519 33.4615 34.9669 33.6767 35.1358 33.8456C35.3047 34.0145 35.5199 34.1296 35.7542 34.1762C35.9885 34.2228 36.2313 34.1989 36.452 34.1074C36.6727 34.016 36.8614 33.8612 36.9941 33.6626C37.1268 33.464 37.1976 33.2305 37.1976 32.9916C37.1972 32.6714 37.0698 32.3645 36.8434 32.1381C36.617 31.9117 36.31 31.7843 35.9898 31.7838Z" fill="white"/>
<path d="M27.2435 11.2146C27.1422 11.2146 27.0429 11.1874 26.9557 11.136C26.8684 11.0846 26.7966 11.0109 26.7475 10.9223C26.6984 10.8338 26.6738 10.7338 26.6764 10.6326C26.679 10.5314 26.7086 10.4327 26.7622 10.3468L29.1982 6.43798C29.2492 6.35616 29.3202 6.28868 29.4045 6.24191C29.4888 6.19514 29.5836 6.17062 29.68 6.17065H34.2138C34.3643 6.17065 34.5086 6.23045 34.6151 6.33689C34.7215 6.44333 34.7813 6.58769 34.7813 6.73822C34.7813 6.88875 34.7215 7.03311 34.6151 7.13955C34.5086 7.24599 34.3643 7.30579 34.2138 7.30579H29.9967L27.7265 10.9473C27.6754 11.0293 27.6042 11.0969 27.5196 11.1436C27.4351 11.1904 27.3401 11.2149 27.2435 11.2146Z" fill="white"/>
<path d="M35.9898 9.0811C35.5265 9.0811 35.0735 8.94369 34.6882 8.68625C34.3029 8.42881 34.0026 8.06289 33.8253 7.63478C33.6479 7.20667 33.6015 6.73558 33.6919 6.2811C33.7823 5.82662 34.0055 5.40915 34.3331 5.08149C34.6608 4.75383 35.0783 4.53069 35.5328 4.44028C35.9872 4.34988 36.4583 4.39628 36.8864 4.57361C37.3145 4.75094 37.6805 5.05124 37.9379 5.43653C38.1954 5.82182 38.3328 6.2748 38.3328 6.73818C38.3319 7.35929 38.0847 7.9547 37.6455 8.39388C37.2064 8.83307 36.6109 9.0802 35.9898 9.0811ZM35.9898 5.5304C35.751 5.5304 35.5174 5.60123 35.3188 5.73395C35.1202 5.86666 34.9654 6.05529 34.874 6.27598C34.7826 6.49668 34.7587 6.73952 34.8053 6.97381C34.8519 7.2081 34.9669 7.4233 35.1358 7.59222C35.3047 7.76113 35.5199 7.87616 35.7542 7.92276C35.9885 7.96936 36.2313 7.94544 36.452 7.85403C36.6727 7.76262 36.8614 7.60781 36.9941 7.40919C37.1268 7.21057 37.1976 6.97706 37.1976 6.73818C37.1973 6.41795 37.07 6.11092 36.8435 5.88448C36.6171 5.65805 36.3101 5.5307 35.9898 5.5304Z" fill="white"/>
</svg>
