<svg width="35" height="35" viewBox="0 0 35 35" fill="none" xmlns="http://www.w3.org/2000/svg">
<path d="M27.9758 9.65631C28.5645 9.49855 29.0851 9.15153 29.4573 8.66875C29.8293 8.18596 30.0323 7.59419 30.0349 6.98468V6.97743C30.0349 6.24487 29.7439 5.54232 29.2258 5.02433C28.7079 4.50634 28.0053 4.21533 27.2728 4.21533H27.2657C26.6562 4.218 26.0646 4.42102 25.5819 4.7931C25.0992 5.16518 24.7522 5.68569 24.5945 6.27439C24.1433 7.90892 23.1682 9.35028 21.8192 10.3775C20.4699 11.4046 18.8211 11.9609 17.1255 11.9609C15.4298 11.9609 13.7809 11.4046 12.4318 10.3775C11.0826 9.35028 10.1077 7.90892 9.6564 6.27439C9.49857 5.68573 9.15153 5.16531 8.66878 4.79332C8.18603 4.42131 7.59436 4.21838 6.98492 4.21579H6.97768C6.24513 4.21579 5.54256 4.5068 5.02457 5.02479C4.50658 5.54278 4.21558 6.24534 4.21558 6.97789V6.98514C4.21827 7.59458 4.4213 8.18623 4.79338 8.66894C5.16546 9.15162 5.68595 9.49857 6.27463 9.65631C7.90916 10.1075 9.35054 11.0825 10.3777 12.4317C11.4049 13.7808 11.9611 15.4297 11.9611 17.1254C11.9611 18.821 11.4049 20.4698 10.3777 21.8191C9.35054 23.1683 7.90916 24.1432 6.27463 24.5944C5.68598 24.7522 5.16554 25.0991 4.79349 25.5818C4.42144 26.0645 4.21843 26.6561 4.21573 27.2654V27.2727C4.21573 28.0053 4.50673 28.7078 5.02473 29.2259C5.54273 29.7438 6.24527 30.0348 6.97783 30.0348H6.98507C7.59453 30.0322 8.18617 29.8291 8.66887 29.457C9.15156 29.0849 9.4985 28.5644 9.65625 27.9757C10.1075 26.3412 11.0825 24.8999 12.4316 23.8727C13.7808 22.8454 15.4296 22.2893 17.1253 22.2893C18.821 22.2893 20.4698 22.8454 21.819 23.8727C23.1681 24.8999 24.1431 26.3412 24.5944 27.9757C24.752 28.5644 25.0991 29.085 25.5817 29.4572C26.0644 29.8292 26.6562 30.0323 27.2657 30.0349H27.2729C28.0054 30.0349 28.708 29.7438 29.226 29.2259C29.7439 28.7079 30.035 28.0053 30.035 27.2728V27.2654C30.0324 26.6559 29.8293 26.0643 29.4573 25.5816C29.0851 25.099 28.5647 24.7521 27.976 24.5943C26.3415 24.143 24.9001 23.1681 23.873 21.8189C22.8457 20.4697 22.2895 18.8209 22.2895 17.1252C22.2895 15.4295 22.8457 13.7807 23.873 12.4315C24.9001 11.0824 26.3415 10.1074 27.976 9.65616L27.9758 9.65631Z" fill="#AF51C5"/>
<path d="M27.9758 9.65631C28.5645 9.49855 29.0851 9.15153 29.4573 8.66875C29.8293 8.18596 30.0323 7.59419 30.0349 6.98468V6.97743C30.0349 6.24487 29.7439 5.54232 29.2258 5.02433C28.7079 4.50634 28.0053 4.21533 27.2728 4.21533H27.2657C26.6562 4.218 26.0646 4.42102 25.5819 4.7931C25.0992 5.16518 24.7522 5.68569 24.5945 6.27439C24.1433 7.90892 23.1682 9.35028 21.8192 10.3775C20.4699 11.4046 18.8211 11.9609 17.1255 11.9609C15.4298 11.9609 13.7809 11.4046 12.4318 10.3775C11.0826 9.35028 10.1077 7.90892 9.6564 6.27439C9.49857 5.68573 9.15153 5.16531 8.66878 4.79332C8.18603 4.42131 7.59436 4.21838 6.98492 4.21579H6.97768C6.24513 4.21579 5.54256 4.5068 5.02457 5.02479C4.50658 5.54278 4.21558 6.24534 4.21558 6.97789V6.98514C4.21827 7.59458 4.4213 8.18623 4.79338 8.66894C5.16546 9.15162 5.68595 9.49857 6.27463 9.65631C7.90916 10.1075 9.35054 11.0825 10.3777 12.4317C11.4049 13.7808 11.9611 15.4297 11.9611 17.1254C11.9611 18.821 11.4049 20.4698 10.3777 21.8191C9.35054 23.1683 7.90916 24.1432 6.27463 24.5944C5.68598 24.7522 5.16554 25.0991 4.79349 25.5818C4.42144 26.0645 4.21843 26.6561 4.21573 27.2654V27.2727C4.21573 28.0053 4.50673 28.7078 5.02473 29.2259C5.54273 29.7438 6.24527 30.0348 6.97783 30.0348H6.98507C7.59453 30.0322 8.18617 29.8291 8.66887 29.457C9.15156 29.0849 9.4985 28.5644 9.65625 27.9757C10.1075 26.3412 11.0825 24.8999 12.4316 23.8727C13.7808 22.8454 15.4296 22.2893 17.1253 22.2893C18.821 22.2893 20.4698 22.8454 21.819 23.8727C23.1681 24.8999 24.1431 26.3412 24.5944 27.9757C24.752 28.5644 25.0991 29.085 25.5817 29.4572C26.0644 29.8292 26.6562 30.0323 27.2657 30.0349H27.2729C28.0054 30.0349 28.708 29.7438 29.226 29.2259C29.7439 28.7079 30.035 28.0053 30.035 27.2728V27.2654C30.0324 26.6559 29.8293 26.0643 29.4573 25.5816C29.0851 25.099 28.5647 24.7521 27.976 24.5943C26.3415 24.143 24.9001 23.1681 23.873 21.8189C22.8457 20.4697 22.2895 18.8209 22.2895 17.1252C22.2895 15.4295 22.8457 13.7807 23.873 12.4315C24.9001 11.0824 26.3415 10.1074 27.976 9.65616L27.9758 9.65631Z" fill="url(#paint0_linear_1_526)"/>
<path d="M3.61412 1.63604C3.70297 1.7244 3.81714 1.78289 3.94077 1.80335C4.0644 1.82382 4.19132 1.80525 4.30391 1.75023C5.33116 1.25414 6.487 1.08891 7.61209 1.27732C8.73719 1.46573 9.77613 1.9985 10.5857 2.80218C10.6973 2.91463 10.8481 2.97948 11.0065 2.98311C11.1649 2.98673 11.3186 2.92884 11.4352 2.8216C11.4931 2.76629 11.5394 2.69996 11.5714 2.6265C11.6033 2.55303 11.6203 2.47393 11.6212 2.39382C11.6221 2.31372 11.607 2.23424 11.5768 2.16005C11.5466 2.08587 11.5018 2.01847 11.4452 1.96182C10.4579 0.977008 9.18869 0.323851 7.81346 0.0929646C6.43825 -0.137922 5.02527 0.0649103 3.77054 0.67332C3.68512 0.71568 3.61101 0.777798 3.55439 0.854523C3.49777 0.931248 3.46026 1.02037 3.44496 1.11449C3.42967 1.20861 3.43703 1.30502 3.46645 1.39572C3.49587 1.48643 3.5465 1.56881 3.61412 1.63604Z" fill="#AF51C5"/>
<path d="M3.61412 1.63604C3.70297 1.7244 3.81714 1.78289 3.94077 1.80335C4.0644 1.82382 4.19132 1.80525 4.30391 1.75023C5.33116 1.25414 6.487 1.08891 7.61209 1.27732C8.73719 1.46573 9.77613 1.9985 10.5857 2.80218C10.6973 2.91463 10.8481 2.97948 11.0065 2.98311C11.1649 2.98673 11.3186 2.92884 11.4352 2.8216C11.4931 2.76629 11.5394 2.69996 11.5714 2.6265C11.6033 2.55303 11.6203 2.47393 11.6212 2.39382C11.6221 2.31372 11.607 2.23424 11.5768 2.16005C11.5466 2.08587 11.5018 2.01847 11.4452 1.96182C10.4579 0.977008 9.18869 0.323851 7.81346 0.0929646C6.43825 -0.137922 5.02527 0.0649103 3.77054 0.67332C3.68512 0.71568 3.61101 0.777798 3.55439 0.854523C3.49777 0.931248 3.46026 1.02037 3.44496 1.11449C3.42967 1.20861 3.43703 1.30502 3.46645 1.39572C3.49587 1.48643 3.5465 1.56881 3.61412 1.63604Z" fill="url(#paint1_linear_1_526)"/>
<path d="M0.675402 3.76588C0.0677346 5.01657 -0.13683 6.42501 0.0899307 7.79689C0.316691 9.16878 0.963602 10.4365 1.94141 11.4251C2.04423 11.5332 2.1827 11.6003 2.33122 11.6142C2.47972 11.628 2.62822 11.5876 2.74925 11.5005C2.81782 11.4487 2.87448 11.3827 2.91541 11.3072C2.95634 11.2316 2.9806 11.1481 2.98652 11.0624C2.99245 10.9767 2.97992 10.8907 2.9498 10.8102C2.91965 10.7297 2.8726 10.6566 2.81182 10.5959C2.00403 9.78608 1.46805 8.74514 1.27816 7.61723C1.08828 6.4893 1.25387 5.33025 1.75201 4.30064C1.80744 4.18793 1.82632 4.06073 1.80601 3.93678C1.78572 3.81281 1.72723 3.69829 1.63874 3.60915C1.57146 3.54147 1.48902 3.49081 1.39824 3.46138C1.30747 3.43196 1.21098 3.42459 1.11679 3.43991C1.0226 3.45525 0.933428 3.4928 0.856663 3.5495C0.779899 3.60618 0.717758 3.68037 0.675402 3.76588Z" fill="#AF51C5"/>
<path d="M0.675402 3.76588C0.0677346 5.01657 -0.13683 6.42501 0.0899307 7.79689C0.316691 9.16878 0.963602 10.4365 1.94141 11.4251C2.04423 11.5332 2.1827 11.6003 2.33122 11.6142C2.47972 11.628 2.62822 11.5876 2.74925 11.5005C2.81782 11.4487 2.87448 11.3827 2.91541 11.3072C2.95634 11.2316 2.9806 11.1481 2.98652 11.0624C2.99245 10.9767 2.97992 10.8907 2.9498 10.8102C2.91965 10.7297 2.8726 10.6566 2.81182 10.5959C2.00403 9.78608 1.46805 8.74514 1.27816 7.61723C1.08828 6.4893 1.25387 5.33025 1.75201 4.30064C1.80744 4.18793 1.82632 4.06073 1.80601 3.93678C1.78572 3.81281 1.72723 3.69829 1.63874 3.60915C1.57146 3.54147 1.48902 3.49081 1.39824 3.46138C1.30747 3.43196 1.21098 3.42459 1.11679 3.43991C1.0226 3.45525 0.933428 3.4928 0.856663 3.5495C0.779899 3.60618 0.717758 3.68037 0.675402 3.76588Z" fill="url(#paint2_linear_1_526)"/>
<path d="M29.9473 32.5006C28.9197 32.9968 27.7635 33.162 26.6381 32.9732C25.5128 32.7846 24.4736 32.2514 23.6641 31.4473C23.5526 31.3354 23.4024 31.2708 23.2446 31.2673C23.0866 31.2636 22.9336 31.3212 22.8172 31.428C22.759 31.4832 22.7124 31.5496 22.6802 31.6231C22.6482 31.6966 22.6311 31.7758 22.63 31.8561C22.6289 31.9364 22.644 32.0161 22.6742 32.0904C22.7044 32.1648 22.7493 32.2323 22.806 32.289C23.7932 33.2738 25.0625 33.9269 26.4377 34.1579C27.8128 34.3887 29.2259 34.1859 30.4806 33.5775C30.566 33.5351 30.6401 33.473 30.6968 33.3963C30.7534 33.3195 30.7909 33.2305 30.8061 33.1363C30.8214 33.0421 30.814 32.9457 30.7845 32.855C30.7551 32.7643 30.7044 32.682 30.6367 32.6148C30.548 32.5265 30.4338 32.4681 30.3102 32.4476C30.1867 32.4271 30.0598 32.4456 29.9473 32.5006Z" fill="#AF51C5"/>
<path d="M29.9473 32.5006C28.9197 32.9968 27.7635 33.162 26.6381 32.9732C25.5128 32.7846 24.4736 32.2514 23.6641 31.4473C23.5526 31.3354 23.4024 31.2708 23.2446 31.2673C23.0866 31.2636 22.9336 31.3212 22.8172 31.428C22.759 31.4832 22.7124 31.5496 22.6802 31.6231C22.6482 31.6966 22.6311 31.7758 22.63 31.8561C22.6289 31.9364 22.644 32.0161 22.6742 32.0904C22.7044 32.1648 22.7493 32.2323 22.806 32.289C23.7932 33.2738 25.0625 33.9269 26.4377 34.1579C27.8128 34.3887 29.2259 34.1859 30.4806 33.5775C30.566 33.5351 30.6401 33.473 30.6968 33.3963C30.7534 33.3195 30.7909 33.2305 30.8061 33.1363C30.8214 33.0421 30.814 32.9457 30.7845 32.855C30.7551 32.7643 30.7044 32.682 30.6367 32.6148C30.548 32.5265 30.4338 32.4681 30.3102 32.4476C30.1867 32.4271 30.0598 32.4456 29.9473 32.5006Z" fill="url(#paint3_linear_1_526)"/>
<path d="M31.4279 22.8167C31.3211 22.933 31.2635 23.0861 31.2672 23.244C31.2707 23.4018 31.3353 23.5522 31.4472 23.6635C32.252 24.4737 32.7853 25.5137 32.9735 26.64C33.1618 27.7663 32.9957 28.9232 32.4982 29.9512C32.4431 30.0638 32.4244 30.1908 32.4447 30.3145C32.4652 30.4383 32.5237 30.5526 32.6121 30.6416C32.6793 30.7092 32.7616 30.7598 32.8522 30.7894C32.9428 30.8188 33.0391 30.8262 33.1333 30.8109C33.2273 30.7957 33.3165 30.7584 33.3931 30.7018C33.4699 30.6453 33.5321 30.5713 33.5745 30.4859C34.1848 29.2308 34.389 27.8169 34.1587 26.4405C33.9285 25.064 33.2752 23.7936 32.2897 22.8054C32.233 22.7485 32.1653 22.7037 32.0909 22.6733C32.0165 22.643 31.9368 22.6279 31.8565 22.629C31.7761 22.63 31.6969 22.6471 31.6232 22.6795C31.5495 22.7117 31.4833 22.7583 31.4279 22.8167Z" fill="#AF51C5"/>
<path d="M31.4279 22.8167C31.3211 22.933 31.2635 23.0861 31.2672 23.244C31.2707 23.4018 31.3353 23.5522 31.4472 23.6635C32.252 24.4737 32.7853 25.5137 32.9735 26.64C33.1618 27.7663 32.9957 28.9232 32.4982 29.9512C32.4431 30.0638 32.4244 30.1908 32.4447 30.3145C32.4652 30.4383 32.5237 30.5526 32.6121 30.6416C32.6793 30.7092 32.7616 30.7598 32.8522 30.7894C32.9428 30.8188 33.0391 30.8262 33.1333 30.8109C33.2273 30.7957 33.3165 30.7584 33.3931 30.7018C33.4699 30.6453 33.5321 30.5713 33.5745 30.4859C34.1848 29.2308 34.389 27.8169 34.1587 26.4405C33.9285 25.064 33.2752 23.7936 32.2897 22.8054C32.233 22.7485 32.1653 22.7037 32.0909 22.6733C32.0165 22.643 31.9368 22.6279 31.8565 22.629C31.7761 22.63 31.6969 22.6471 31.6232 22.6795C31.5495 22.7117 31.4833 22.7583 31.4279 22.8167Z" fill="url(#paint4_linear_1_526)"/>
<path d="M32.4993 4.30131C32.9963 5.32902 33.162 6.48566 32.9735 7.61155C32.785 8.73744 32.2516 9.77708 31.4472 10.587C31.3353 10.6983 31.2707 10.8486 31.2672 11.0064C31.2635 11.1642 31.3211 11.3173 31.4279 11.4336C31.4831 11.4919 31.5495 11.5385 31.623 11.5706C31.6965 11.6028 31.7758 11.6199 31.856 11.621C31.9363 11.6221 32.0159 11.607 32.0903 11.5768C32.1646 11.5466 32.2322 11.5018 32.2889 11.445C33.2742 10.4573 33.9276 9.18739 34.1581 7.81149C34.3888 6.4356 34.1854 5.02202 33.5761 3.76702C33.5337 3.68163 33.4714 3.60759 33.3947 3.55103C33.3179 3.49446 33.2289 3.45701 33.1347 3.44178C33.0407 3.42656 32.9442 3.43397 32.8536 3.46344C32.7628 3.4929 32.6805 3.54356 32.6133 3.61121C32.525 3.70012 32.4665 3.81436 32.446 3.93803C32.4256 4.06172 32.4443 4.18869 32.4993 4.30131Z" fill="#AF51C5"/>
<path d="M32.4993 4.30131C32.9963 5.32902 33.162 6.48566 32.9735 7.61155C32.785 8.73744 32.2516 9.77708 31.4472 10.587C31.3353 10.6983 31.2707 10.8486 31.2672 11.0064C31.2635 11.1642 31.3211 11.3173 31.4279 11.4336C31.4831 11.4919 31.5495 11.5385 31.623 11.5706C31.6965 11.6028 31.7758 11.6199 31.856 11.621C31.9363 11.6221 32.0159 11.607 32.0903 11.5768C32.1646 11.5466 32.2322 11.5018 32.2889 11.445C33.2742 10.4573 33.9276 9.18739 34.1581 7.81149C34.3888 6.4356 34.1854 5.02202 33.5761 3.76702C33.5337 3.68163 33.4714 3.60759 33.3947 3.55103C33.3179 3.49446 33.2289 3.45701 33.1347 3.44178C33.0407 3.42656 32.9442 3.43397 32.8536 3.46344C32.7628 3.4929 32.6805 3.54356 32.6133 3.61121C32.525 3.70012 32.4665 3.81436 32.446 3.93803C32.4256 4.06172 32.4443 4.18869 32.4993 4.30131Z" fill="url(#paint5_linear_1_526)"/>
<path d="M23.6638 2.80349C24.4736 1.99893 25.5132 1.46561 26.6392 1.27713C27.7651 1.08864 28.9217 1.2543 29.9494 1.75123C30.0621 1.80639 30.1891 1.82505 30.3127 1.80463C30.4364 1.78423 30.5506 1.72575 30.6395 1.63735C30.7072 1.57017 30.7579 1.48783 30.7873 1.39715C30.8167 1.30648 30.8241 1.21008 30.8089 1.11597C30.7938 1.02185 30.7563 0.932722 30.6998 0.855971C30.6432 0.779218 30.5691 0.717055 30.4837 0.674635C29.2287 0.0652726 27.8152 -0.138208 26.4393 0.0924455C25.0634 0.3231 23.7934 0.976438 22.8057 1.96175C22.749 2.01851 22.7041 2.08604 22.6739 2.16038C22.6437 2.23474 22.6286 2.31438 22.6297 2.39463C22.6308 2.47489 22.6479 2.55411 22.6799 2.62764C22.7121 2.70118 22.7587 2.76752 22.8169 2.82276C22.9333 2.92949 23.0863 2.98708 23.2443 2.98349C23.4021 2.9799 23.5523 2.91541 23.6638 2.80349Z" fill="#AF51C5"/>
<path d="M23.6638 2.80349C24.4736 1.99893 25.5132 1.46561 26.6392 1.27713C27.7651 1.08864 28.9217 1.2543 29.9494 1.75123C30.0621 1.80639 30.1891 1.82505 30.3127 1.80463C30.4364 1.78423 30.5506 1.72575 30.6395 1.63735C30.7072 1.57017 30.7579 1.48783 30.7873 1.39715C30.8167 1.30648 30.8241 1.21008 30.8089 1.11597C30.7938 1.02185 30.7563 0.932722 30.6998 0.855971C30.6432 0.779218 30.5691 0.717055 30.4837 0.674635C29.2287 0.0652726 27.8152 -0.138208 26.4393 0.0924455C25.0634 0.3231 23.7934 0.976438 22.8057 1.96175C22.749 2.01851 22.7041 2.08604 22.6739 2.16038C22.6437 2.23474 22.6286 2.31438 22.6297 2.39463C22.6308 2.47489 22.6479 2.55411 22.6799 2.62764C22.7121 2.70118 22.7587 2.76752 22.8169 2.82276C22.9333 2.92949 23.0863 2.98708 23.2443 2.98349C23.4021 2.9799 23.5523 2.91541 23.6638 2.80349Z" fill="url(#paint6_linear_1_526)"/>
<path d="M10.5872 31.4472C9.77733 32.2516 8.7377 32.785 7.61181 32.9735C6.4859 33.1619 5.32928 32.9963 4.30155 32.4993C4.18895 32.4442 4.06196 32.4256 3.93829 32.4459C3.8146 32.4664 3.70036 32.525 3.61145 32.6133C3.54381 32.6805 3.49316 32.7628 3.46369 32.8536C3.43423 32.9442 3.4268 33.0406 3.44202 33.1347C3.45727 33.2288 3.49471 33.3179 3.55127 33.3946C3.60783 33.4714 3.68188 33.5336 3.76726 33.576C5.02226 34.1854 6.43584 34.3888 7.81175 34.1581C9.18765 33.9275 10.4576 33.2741 11.4453 32.2889C11.502 32.2322 11.5468 32.1645 11.5771 32.0903C11.6073 32.016 11.6223 31.9363 11.6212 31.856C11.6202 31.7757 11.6031 31.6965 11.5709 31.623C11.5387 31.5495 11.4921 31.4831 11.4339 31.4279C11.3176 31.3211 11.1645 31.2635 11.0067 31.267C10.8488 31.2707 10.6985 31.3351 10.5872 31.4472Z" fill="#AF51C5"/>
<path d="M10.5872 31.4472C9.77733 32.2516 8.7377 32.785 7.61181 32.9735C6.4859 33.1619 5.32928 32.9963 4.30155 32.4993C4.18895 32.4442 4.06196 32.4256 3.93829 32.4459C3.8146 32.4664 3.70036 32.525 3.61145 32.6133C3.54381 32.6805 3.49316 32.7628 3.46369 32.8536C3.43423 32.9442 3.4268 33.0406 3.44202 33.1347C3.45727 33.2288 3.49471 33.3179 3.55127 33.3946C3.60783 33.4714 3.68188 33.5336 3.76726 33.576C5.02226 34.1854 6.43584 34.3888 7.81175 34.1581C9.18765 33.9275 10.4576 33.2741 11.4453 32.2889C11.502 32.2322 11.5468 32.1645 11.5771 32.0903C11.6073 32.016 11.6223 31.9363 11.6212 31.856C11.6202 31.7757 11.6031 31.6965 11.5709 31.623C11.5387 31.5495 11.4921 31.4831 11.4339 31.4279C11.3176 31.3211 11.1645 31.2635 11.0067 31.267C10.8488 31.2707 10.6985 31.3351 10.5872 31.4472Z" fill="url(#paint7_linear_1_526)"/>
<path d="M1.7514 29.9492C1.25439 28.9214 1.08869 27.7648 1.27714 26.6389C1.4656 25.513 1.99893 24.4734 2.8035 23.6635C2.9154 23.5521 2.97991 23.4018 2.9835 23.244C2.98709 23.0861 2.92949 22.933 2.82277 22.8167C2.76752 22.7584 2.70117 22.7119 2.62765 22.6797C2.55411 22.6476 2.47488 22.6305 2.39464 22.6294C2.31439 22.6284 2.23473 22.6435 2.16039 22.6737C2.08605 22.7039 2.0185 22.7487 1.96176 22.8054C0.976443 23.7931 0.323098 25.0631 0.0924455 26.439C-0.138208 27.8149 0.0652726 29.2284 0.674635 30.4835C0.717054 30.5689 0.779219 30.643 0.85597 30.6995C0.932722 30.7561 1.02185 30.7935 1.11597 30.8086C1.21009 30.8239 1.30648 30.8165 1.39715 30.7871C1.48783 30.7576 1.57017 30.7069 1.63736 30.6393C1.72574 30.5504 1.78421 30.4362 1.80466 30.3124C1.82509 30.1888 1.80648 30.0618 1.7514 29.9492Z" fill="#AF51C5"/>
<path d="M1.7514 29.9492C1.25439 28.9214 1.08869 27.7648 1.27714 26.6389C1.4656 25.513 1.99893 24.4734 2.8035 23.6635C2.9154 23.5521 2.97991 23.4018 2.9835 23.244C2.98709 23.0861 2.92949 22.933 2.82277 22.8167C2.76752 22.7584 2.70117 22.7119 2.62765 22.6797C2.55411 22.6476 2.47488 22.6305 2.39464 22.6294C2.31439 22.6284 2.23473 22.6435 2.16039 22.6737C2.08605 22.7039 2.0185 22.7487 1.96176 22.8054C0.976443 23.7931 0.323098 25.0631 0.0924455 26.439C-0.138208 27.8149 0.0652726 29.2284 0.674635 30.4835C0.717054 30.5689 0.779219 30.643 0.85597 30.6995C0.932722 30.7561 1.02185 30.7935 1.11597 30.8086C1.21009 30.8239 1.30648 30.8165 1.39715 30.7871C1.48783 30.7576 1.57017 30.7069 1.63736 30.6393C1.72574 30.5504 1.78421 30.4362 1.80466 30.3124C1.82509 30.1888 1.80648 30.0618 1.7514 29.9492Z" fill="url(#paint8_linear_1_526)"/>
<defs>
<linearGradient id="paint0_linear_1_526" x1="12.6349" y1="-7.01058" x2="24.7268" y2="44.4251" gradientUnits="userSpaceOnUse">
<stop stop-color="#2F79CB"/>
<stop offset="1" stop-color="#AF51C5"/>
</linearGradient>
<linearGradient id="paint1_linear_1_526" x1="6.1059" y1="-1.29672" x2="6.63932" y2="4.92851" gradientUnits="userSpaceOnUse">
<stop stop-color="#2F79CB"/>
<stop offset="1" stop-color="#AF51C5"/>
</linearGradient>
<linearGradient id="paint2_linear_1_526" x1="0.97433" y1="-0.126442" x2="8.80643" y2="12.036" gradientUnits="userSpaceOnUse">
<stop stop-color="#2F79CB"/>
<stop offset="1" stop-color="#AF51C5"/>
</linearGradient>
<linearGradient id="paint3_linear_1_526" x1="25.2986" y1="29.9699" x2="25.8322" y2="36.1961" gradientUnits="userSpaceOnUse">
<stop stop-color="#2F79CB"/>
<stop offset="1" stop-color="#AF51C5"/>
</linearGradient>
<linearGradient id="paint4_linear_1_526" x1="32.24" y1="19.0681" x2="40.0834" y2="31.2237" gradientUnits="userSpaceOnUse">
<stop stop-color="#2F79CB"/>
<stop offset="1" stop-color="#AF51C5"/>
</linearGradient>
<linearGradient id="paint5_linear_1_526" x1="32.2399" y1="-0.125467" x2="40.0798" y2="12.028" gradientUnits="userSpaceOnUse">
<stop stop-color="#2F79CB"/>
<stop offset="1" stop-color="#AF51C5"/>
</linearGradient>
<linearGradient id="paint6_linear_1_526" x1="25.2993" y1="-1.29724" x2="25.8328" y2="4.92932" gradientUnits="userSpaceOnUse">
<stop stop-color="#2F79CB"/>
<stop offset="1" stop-color="#AF51C5"/>
</linearGradient>
<linearGradient id="paint7_linear_1_526" x1="6.10398" y1="29.9696" x2="6.63747" y2="36.1963" gradientUnits="userSpaceOnUse">
<stop stop-color="#2F79CB"/>
<stop offset="1" stop-color="#AF51C5"/>
</linearGradient>
<linearGradient id="paint8_linear_1_526" x1="0.97293" y1="19.0698" x2="8.81275" y2="31.2234" gradientUnits="userSpaceOnUse">
<stop stop-color="#2F79CB"/>
<stop offset="1" stop-color="#AF51C5"/>
</linearGradient>
</defs>
</svg>
