<svg width="38" height="37" viewBox="0 0 38 37" fill="none" xmlns="http://www.w3.org/2000/svg">
<path d="M3.06446 33.097H19V31.8709H3.06446C2.04901 31.8709 1.22575 31.0476 1.22575 30.0322V3.06445C1.22575 2.0487 2.04901 1.22575 3.06446 1.22575H30.0322C31.0481 1.22575 31.8709 2.0487 31.8709 3.06445V17.1611H33.097V3.06445C33.095 1.37277 31.7241 0.00199708 30.0322 0H3.06446C1.37308 0.00199708 0.00215071 1.37277 0 3.06445V30.0322C0.00215071 31.7239 1.37308 33.0947 3.06446 33.097Z" fill="white"/>
<path d="M2.45175 2.45178H3.67735V3.67738H2.45175V2.45178Z" fill="white"/>
<path d="M4.90317 2.45178H6.12923V3.67738H4.90317V2.45178Z" fill="white"/>
<path d="M7.35483 2.45178H8.58073V3.67738H7.35483V2.45178Z" fill="white"/>
<path d="M2.45175 4.9032H30.6451V6.12926H2.45175V4.9032Z" fill="white"/>
<path d="M8.76021 7.53442L7.2034 9.09123C5.88748 8.22004 4.12528 8.48734 3.12658 9.70956C2.12803 10.9316 2.2176 12.7118 3.33351 13.8276C4.44927 14.9438 6.22959 15.0333 7.45181 14.0346C8.67388 13.0361 8.94133 11.2736 8.06999 9.95797L9.62664 8.40116L8.76021 7.53442ZM5.51587 13.4837C4.50058 13.4837 3.67731 12.6606 3.67731 11.6452C3.67731 10.6296 4.50058 9.80665 5.51587 9.80665C5.78931 9.80757 6.05831 9.87025 6.30364 9.99023L5.0828 11.2112L5.94923 12.078L7.17099 10.8577C7.29097 11.1029 7.3538 11.3719 7.35472 11.6452C7.35472 12.6606 6.53177 13.4837 5.51587 13.4837Z" fill="white"/>
<path d="M10.4193 9.80664H20.8384V11.0322H10.4193V9.80664Z" fill="white"/>
<path d="M10.4193 12.2582H14.7095V13.4838H10.4193V12.2582Z" fill="white"/>
<path d="M15.9356 12.2582H24.516V13.4838H15.9356V12.2582Z" fill="white"/>
<path d="M22.0645 9.80664H28.1935V11.0322H22.0645V9.80664Z" fill="white"/>
<path d="M8.76021 14.8892L7.2034 16.446C5.88748 15.5748 4.12528 15.8421 3.12658 17.0643C2.12803 18.2865 2.2176 20.0665 3.33351 21.1826C4.44927 22.2985 6.22959 22.3881 7.45181 21.3894C8.67388 20.3907 8.94133 18.6288 8.06999 17.3127L9.62664 15.7559L8.76021 14.8892ZM5.51587 20.8386C4.50058 20.8386 3.67731 20.0154 3.67731 18.9999C3.67731 17.9843 4.50058 17.1611 5.51587 17.1611C5.78931 17.1622 6.05831 17.225 6.30364 17.345L5.0828 18.5663L5.94923 19.4327L7.17099 18.2123C7.29097 18.4577 7.3538 18.7266 7.35472 18.9999C7.35472 20.0154 6.53177 20.8386 5.51587 20.8386Z" fill="white"/>
<path d="M10.4193 17.1611H20.8384V18.387H10.4193V17.1611Z" fill="white"/>
<path d="M10.4193 19.6129H14.7095V20.8387H10.4193V19.6129Z" fill="white"/>
<path d="M15.9356 19.6129H20.8386V20.8387H15.9356V19.6129Z" fill="white"/>
<path d="M22.0645 17.1611H24.516V18.387H22.0645V17.1611Z" fill="white"/>
<path d="M8.76021 22.244L7.2034 23.8008C5.88748 22.9296 4.12528 23.1969 3.12658 24.4192C2.12803 25.6414 2.2176 27.4214 3.33351 28.5375C4.44927 29.6535 6.22959 29.7428 7.45181 28.7442C8.67388 27.7455 8.94133 25.9835 8.06999 24.6674L9.62664 23.1108L8.76021 22.244ZM5.51587 28.1935C4.50058 28.1935 3.67731 27.3702 3.67731 26.3548C3.67731 25.3392 4.50058 24.5161 5.51587 24.5161C5.78931 24.517 6.05831 24.5797 6.30364 24.6998L5.0828 25.9211L5.94923 26.7876L7.17099 25.5672C7.29097 25.8125 7.3538 26.0817 7.35472 26.3548C7.35472 27.3702 6.53177 28.1935 5.51587 28.1935Z" fill="white"/>
<path d="M10.4193 24.5161H18.3869V25.7422H10.4193V24.5161Z" fill="white"/>
<path d="M10.4193 26.9678H14.7095V28.1935H10.4193V26.9678Z" fill="white"/>
<path d="M15.9356 26.9678H18.3871V28.1935H15.9356V26.9678Z" fill="white"/>
<path d="M28.8065 36.7744C33.8842 36.7744 37.9999 32.658 37.9999 27.5808C37.9999 22.5031 33.8842 18.3871 28.8065 18.3871C23.7289 18.3871 19.6129 22.5031 19.6129 27.5808C19.6188 32.6557 23.7313 36.7683 28.8065 36.7744ZM28.8065 19.613C33.2067 19.613 36.7743 23.1802 36.7743 27.5808C36.7743 31.9813 33.2067 35.5484 28.8065 35.5484C24.4059 35.5484 20.8385 31.9813 20.8385 27.5808C20.8437 23.1824 24.4079 19.6179 28.8065 19.613Z" fill="white"/>
<path d="M25.0679 27.9194L23.9708 28.4672L25.1967 30.9189C25.2845 31.0952 25.4523 31.2186 25.6469 31.2501C25.6786 31.255 25.7102 31.2576 25.742 31.2581C25.9044 31.2581 26.0603 31.1934 26.1756 31.0785L33.5301 23.7237L32.6636 22.8569L25.9098 29.6105L25.0679 27.9194Z" fill="white"/>
</svg>
